<svg xmlns="http://www.w3.org/2000/svg" xmlns:xlink="http://www.w3.org/1999/xlink" xmlns:lucid="lucid" width="1760" height="1360"><g transform="translate(0 0)" lucid:page-tab-id="0eqBfotfVGlV"><path d="M122 1020H85c-2.76 0-5-2.24-5-5V165c0-2.76 2.24-5 5-5h37" fill="#fff"/><path d="M122 1015c0 2.76-2.24 5-5 5H85c-2.76 0-5-2.24-5-5V165c0-2.76 2.24-5 5-5h32c2.76 0 5 2.24 5 5zM122 1020h1493c2.76 0 5-2.24 5-5V165c0-2.76-2.24-5-5-5H122M122 1020V160M80 840h1540M80 620h1540M80 340h1540" stroke="#666" stroke-width="2" fill="none"/><use xlink:href="#a" transform="matrix(6.123233995736766e-17,-1,1,6.123233995736766e-17,80.00000000000006,340) translate(28.024691358024697 33.111111111111114)"/><use xlink:href="#b" transform="matrix(6.123233995736766e-17,-1,1,6.123233995736766e-17,80.00000000000006,620) translate(80.06790123456791 33.111111111111114)"/><use xlink:href="#c" transform="matrix(6.123233995736766e-17,-1,1,6.123233995736766e-17,80.00000000000003,839.9999999999999) translate(80.92592592592592 33.111111111111114)"/><use xlink:href="#d" transform="matrix(6.123233995736766e-17,-1,1,6.123233995736766e-17,80.00000000000003,1019.9999999999999) translate(51.79012345679013 25.444444444444443)"/><path d="M140 226c0-2.77 2.24-5 5-5h170.87c2.76 0 5 2.23 5 5v50c0 2.75-2.24 5-5 5H145c-2.76 0-5-2.25-5-5z" stroke="#666" stroke-width="2" fill="#ccc"/><use xlink:href="#e" transform="matrix(1,0,0,1,140,220.98995783051998) translate(54.62499999999999 33.4625)"/><path d="M32 37c0-2.76 2.24-5 5-5h874.5c2.76 0 5 2.24 5 5v49.5c0 2.76-2.24 5-5 5H37c-2.76 0-5-2.24-5-5z" fill="none"/><use xlink:href="#f" transform="matrix(1,0,0,1,32,32) translate(0 35.94444444444444)"/><use xlink:href="#g" transform="matrix(1,0,0,1,32,32) translate(112.19753086419753 35.94444444444444)"/><use xlink:href="#h" transform="matrix(1,0,0,1,32,32) translate(133.82716049382717 35.94444444444444)"/><use xlink:href="#i" transform="matrix(1,0,0,1,32,32) translate(241.58024691358025 35.94444444444444)"/><use xlink:href="#j" transform="matrix(1,0,0,1,32,32) translate(433.87654320987656 35.94444444444444)"/><use xlink:href="#k" transform="matrix(1,0,0,1,32,32) translate(571.6543209876543 35.94444444444444)"/><use xlink:href="#l" transform="matrix(1,0,0,1,32,32) translate(692.4444444444445 35.94444444444444)"/><path d="M31.33 80H1728" stroke="#999" stroke-width="2" fill="none"/><path d="M1040 37c0-2.76 2.24-5 5-5h678c2.76 0 5 2.24 5 5v38c0 2.76-2.24 5-5 5h-678c-2.76 0-5-2.24-5-5z" fill="none"/><use xlink:href="#m" transform="matrix(1,0,0,1,1040,32) translate(335.7160493827195 29.7777777777776)"/><use xlink:href="#n" transform="matrix(1,0,0,1,1040,32) translate(398.5555555555584 29.7777777777776)"/><use xlink:href="#o" transform="matrix(1,0,0,1,1040,32) translate(462.62962962963184 29.7777777777776)"/><use xlink:href="#p" transform="matrix(1,0,0,1,1040,32) translate(486.88888888889085 29.7777777777776)"/><use xlink:href="#q" transform="matrix(1,0,0,1,1040,32) translate(601.580246913581 29.7777777777776)"/><use xlink:href="#r" transform="matrix(1,0,0,1,1040,32) translate(638.6172839506178 29.7777777777776)"/><path d="M384 226c0-2.76 2.24-5 5-5h170.87c2.76 0 5 2.24 5 5v50c0 2.76-2.24 5-5 5H389c-2.76 0-5-2.24-5-5z" stroke="#666" stroke-width="2" fill="#ccc"/><use xlink:href="#s" transform="matrix(1,0,0,1,384,221) translate(65.55 33.4625)"/><path d="M620 226c0-2.76 2.24-5 5-5h170.87c2.76 0 5 2.24 5 5v50c0 2.76-2.24 5-5 5H625c-2.76 0-5-2.24-5-5z" stroke="#666" stroke-width="2" fill="#ccc"/><use xlink:href="#t" transform="matrix(1,0,0,1,620,221) translate(44.324999999999996 33.4625)"/><path d="M321.87 251h33.19" stroke="#999" stroke-width="8" fill="none"/><path d="M321.87 255h-1v-8h1zM370.06 251l-14.27 4.64v-9.27z" fill="#999"/><path d="M383 251l-31.2 10.15v-20.3z" fill="#999"/><path d="M565.87 251h25.2" stroke="#999" stroke-width="8" fill="none"/><path d="M565.87 255h-1v-8h1zM606.06 251l-14.27 4.64v-9.28z" fill="#999"/><path d="M619 251l-31.2 10.14v-20.28z" fill="#999"/><path d="M140 486c0-2.77 2.24-5 5-5h170.87c2.76 0 5 2.23 5 5v50c0 2.76-2.24 5-5 5H145c-2.76 0-5-2.24-5-5z" stroke="#666" stroke-width="2" fill="#ccc"/><use xlink:href="#u" transform="matrix(1,0,0,1,140,480.9949789152598) translate(39.82499999999999 33.4625)"/><use xlink:href="#v" transform="matrix(1,0,0,1,140,480.9949789152598) translate(88.32499999999999 33.4625)"/><path d="M383.13 486c0-2.76 2.24-5 5-5H559c2.76 0 5 2.24 5 5v50c0 2.76-2.24 5-5 5H388.13c-2.76 0-5-2.24-5-5z" stroke="#666" stroke-width="2" fill="#ccc"/><use xlink:href="#w" transform="matrix(1,0,0,1,383.13043478261,481) translate(51.27499999999999 33.4625)"/><use xlink:href="#x" transform="matrix(1,0,0,1,383.13043478261,481) translate(105.125 33.4625)"/><path d="M140.57 686c0-2.76 2.23-5 5-5h170.86c2.77 0 5 2.24 5 5v50c0 2.76-2.23 5-5 5H145.57c-2.77 0-5-2.24-5-5z" stroke="#666" stroke-width="2" fill="#ccc"/><use xlink:href="#y" transform="matrix(1,0,0,1,140.565217391305,681) translate(66.94999999999999 33.4625)"/><path d="M801.87 251h35c2.76 0 5-2.24 5-5v-61c0-2.76-2.24-5-5-5H479.43c-2.76 0-5 2.24-5 5v7.06" stroke="#999" stroke-width="8" fill="none"/><path d="M801.87 255h-1v-8h1zM474.43 207.06l-4.63-14.27h9.27z" fill="#999"/><path d="M474.43 220l-10.14-31.2h20.28zM478.43 305.64l-1.56 4.78-4.27 3.12-2.84.46h-233.7l-1.1.37-.47.63-.07.32v136.73h-8V314.68l.46-2.84 3.1-4.28 4.8-1.56h234.3l.33-.05.64-.47.36-1.12V282h8zM478.43 282h-8v-1h8zM230.43 467.05l-4.63-14.27h9.27z" fill="#999"/><path d="M230.43 480l-10.14-31.22h20.28z" fill="#999"/><path d="M380 685c0-2.76 2.24-5 5-5h110.87c2.76 0 5 2.24 5 5v51c0 2.76-2.24 5-5 5H385c-2.76 0-5-2.24-5-5z" stroke="#666" stroke-width="2" fill="#ccc"/><use xlink:href="#z" transform="matrix(1,0,0,1,380,680) translate(30.944444444444443 26.166666666666668)"/><use xlink:href="#A" transform="matrix(1,0,0,1,380,680) translate(6.537037037037024 42.16666666666667)"/><use xlink:href="#B" transform="matrix(1,0,0,1,380,680) translate(81.20370370370371 42.16666666666667)"/><path d="M559.43 685c0-2.76 2.24-5 5-5H675.3c2.77 0 5 2.24 5 5v50c0 2.76-2.23 5-5 5H564.43c-2.76 0-5-2.24-5-5z" stroke="#666" stroke-width="2" fill="#ccc"/><use xlink:href="#C" transform="matrix(1,0,0,1,559.4347826086951,680) translate(35.37037037037037 25.666666666666668)"/><use xlink:href="#D" transform="matrix(1,0,0,1,559.4347826086951,680) translate(35.37037037037037 41.66666666666667)"/><path d="M738.87 685c0-2.76 2.24-5 5-5h110c2.76 0 5 2.24 5 5v50c0 2.76-2.24 5-5 5h-110c-2.76 0-5-2.24-5-5z" stroke="#666" stroke-width="2" fill="#ccc"/><use xlink:href="#E" transform="matrix(1,0,0,1,738.8695652173901,680) translate(44.81481481481481 33.54166666666667)"/><path d="M917.43 683.5c0-2.76 2.24-5 5-5h110.44c2.76 0 5 2.24 5 5V735c0 2.76-2.24 5-5 5H922.43c-2.76 0-5-2.24-5-5z" stroke="#666" stroke-width="2" fill="#ccc"/><use xlink:href="#F" transform="matrix(1,0,0,1,917.4347826086951,678.5) translate(34.87037037037037 18.416666666666668)"/><use xlink:href="#G" transform="matrix(1,0,0,1,917.4347826086951,678.5) translate(58.148148148148145 34.41666666666667)"/><use xlink:href="#D" transform="matrix(1,0,0,1,917.4347826086951,678.5) translate(34.87037037037037 50.41666666666667)"/><path d="M576.98 439.3l2.9 2.13 1.12 3.4v47.2l-.3 1.9-2.13 2.9-3.4 1.13H565v-2h9.84l2.5-.82 1.46-2 .2-1.26v-46.72l-.82-2.5-2-1.46-1.26-.2H553v-2h22.08zm-86.86 1.7h-11.4l-2.5.82-1.45 2-.2 1.26v16.68h-2v-16.84l.3-1.9 2.12-2.9 3.4-1.12h11.72z" fill="#999"/><path d="M565 497.96h-1v-2h1zM473.57 476.76l-4.64-14.26h9.27z" fill="#999"/><path d="M473.57 480l-6.02-18.5h12.03zm-3.26-16.5l3.27 10.03 3.25-10.03z" fill="#999"/><use xlink:href="#H" transform="matrix(1,0,0,1,490.11581972702277,432) translate(0.004999999999999005 10.666666666666668)"/><path d="M600.42 508.56l3.12 4.28.46 2.84v59.96l-1.56 4.78-4.28 3.12-2.84.46H236.64l-1.12.37-.47.63-.05.32v66.74h-8v-67.38l.46-2.84 3.12-4.28 4.78-1.56h359.32l.32-.05.63-.47.37-1.12v-58.04l-.05-.32-.47-.63-1.12-.37H565v-8h30.64z" fill="#999"/><path d="M565 515h-1v-8h1zM231 667.06l-4.64-14.27h9.28z" fill="#999"/><path d="M231 680l-10.14-31.2h20.28zM516.98 638.3l2.9 2.13 1.12 3.4v51.85l-.3 1.9-2.13 2.9-3.4 1.12h-13.3v-2h12.97l2.5-.8 1.46-2 .2-1.28v-51.36l-.82-2.5-2-1.46-1.26-.2h-6.9v-2h7.06zm-71.84 1.85l-2.04.67-1.46 2-.2 1.26v16.68h-2v-16.84l.3-1.9 2.12-2.9 3.28-1.08zM501.87 701.6h-1v-2h1zM440.43 675.76l-4.63-14.26h9.27z" fill="#999"/><path d="M440.43 679l-6-18.5h12.02zm-3.25-16.5l3.25 10.03 3.26-10.03z" fill="#999"/><use xlink:href="#H" transform="matrix(1,0,0,1,445.1406817756213,631.0000000000002) translate(0.004999999999999005 10.666666666666668)"/><path d="M501.87 710.5h27.8c.26 0 .48-.22.48-.5v-.15c0-.2.15-.34.34-.34" stroke="#999" stroke-width="8" fill="none"/><path d="M501.87 714.5h-1v-8h1zM545.5 709.5l-14.28 4.64v-9.27z" fill="#999"/><path d="M558.43 709.5l-31.2 10.15v-20.28zM876.98 639.3l2.9 2.13 1.12 3.4v50.32l-.3 1.9-2.13 2.9-3.4 1.12h-15.3v-2h14.97l2.5-.82 1.46-2 .2-1.26v-49.84l-.82-2.5-2-1.46-1.26-.2h-8.78v-2h8.94zm-73.73 1.95l-1.72.57-1.46 2-.2 1.26v15.68h-2v-15.84l.3-1.9 2.13-2.9 2.95-.97zM859.87 701.07h-1v-2h1zM798.87 675.76l-4.64-14.26h9.27z" fill="#999"/><path d="M798.87 679l-6-18.5h12zm-3.26-16.5l3.27 10.03 3.26-10.03z" fill="#999"/><use xlink:href="#H" transform="matrix(1,0,0,1,803.2522732194195,632.0000000000002) translate(0.004999999999999005 10.666666666666668)"/><path d="M1100 325c0-2.76 2.24-5 5-5h110c2.76 0 5 2.24 5 5v310c0 2.76-2.24 5-5 5h-110c-2.76 0-5-2.24-5-5z" stroke="#666" stroke-width="2" fill="#ff8f80"/><use xlink:href="#I" transform="matrix(1,0,0,1,1100,320) translate(36.05 164.4)"/><path d="M681.8 357.48H1099v6H679.93l-1.17-.48H267.04l-1.58.52-.8 1.1-.1.62v90.05h-6v-90.54l.4-2.53 2.8-3.82 4.32-1.4h414.55zM1100 363.48h-1v-6h1zM261.56 470.3L256.93 456h9.27z" fill="#ffbbb1"/><path d="M261.56 480L252.8 453h17.52zm-.5-20.98l.5 1.56.5-1.56z" fill="#ffbbb1"/><path d="M321.87 511h32.33" stroke="#999" stroke-width="8" fill="none"/><path d="M321.87 515h-1v-8h1zM369.2 511l-14.28 4.64v-9.28z" fill="#999"/><path d="M382.13 511l-31.2 10.14v-20.28z" fill="#999"/><path d="M1440 325c0-2.76 2.24-5 5-5h110c2.76 0 5 2.24 5 5v310c0 2.76-2.24 5-5 5h-110c-2.76 0-5-2.24-5-5z" stroke="#666" stroke-width="2" fill="#ff8f80"/><use xlink:href="#J" transform="matrix(1,0,0,1,1440,320) translate(33.525 164.4)"/><path d="M1500 319v-35c0-2.76-2.24-5-5-5h-91c-2.76 0-5 2.24-5 5v191c0 2.76 2.24 5 5 5h16.76" stroke="#999" stroke-width="2" fill="none"/><path d="M1501 320h-2v-1h2zM1435.76 480l-14.26 4.64v-9.28z" fill="#999"/><path d="M1439 480l-18.5 6v-12zm-16.5 3.26l10.03-3.26-10.03-3.26zM1056.98 399.3l2.9 2.13 1.12 3.4v287.32l-.3 1.9-2.13 2.9-3.4 1.12h-16.3v-2h15.97l2.5-.8 1.46-2 .2-1.28V405.15l-.82-2.5-2-1.46-1.26-.2h-758.5l-2.5.82-1.46 2-.2 1.26v56.68h-2v-56.84l.3-1.9 2.13-2.9 3.4-1.12h758.98z" fill="#999"/><path d="M1038.87 698.07h-1v-2h1zM291.26 476.76l-4.63-14.27h9.27z" fill="#999"/><path d="M291.26 480l-6-18.5h12zM288 463.5l3.26 10.02 3.26-10.03z" fill="#999"/><path d="M141 905c0-2.76 2.24-5 5-5h170.87c2.76 0 5 2.24 5 5v50c0 2.76-2.24 5-5 5H146c-2.76 0-5-2.24-5-5z" stroke="#666" stroke-width="2" fill="#ccc"/><use xlink:href="#K" transform="matrix(1,0,0,1,141,899.9999999999997) translate(69.05 33.4625)"/><path d="M383.57 905c0-2.76 2.23-5 5-5h170.86c2.77 0 5 2.24 5 5v50c0 2.76-2.23 5-5 5H388.57c-2.77 0-5-2.24-5-5z" stroke="#666" stroke-width="2" fill="#ccc"/><use xlink:href="#L" transform="matrix(1,0,0,1,383.565217391305,900) translate(42.12499999999999 33.4625)"/><path d="M1240 325c0-2.76 2.24-5 5-5h110c2.76 0 5 2.24 5 5v310c0 2.76-2.24 5-5 5h-110c-2.76 0-5-2.24-5-5z" stroke="#666" stroke-width="2" fill="#ff8f80"/><use xlink:href="#K" transform="matrix(1,0,0,1,1240,320) translate(38.55 164.4)"/><path d="M1303 815.48l-1.4 4.33-3.83 2.8-2.53.4H266.22l-1.58.52-.8 1.1-.1.62v49.05h-6v-49.54l.4-2.53 2.8-3.82 4.33-1.4h1029.5l.62-.1 1.08-.8.52-1.58V641h6zM1303 641h-6v-1h6zM260.75 889.3l-4.64-14.27h9.28z" fill="#ffbbb1"/><path d="M260.75 899l-8.77-26.97h17.53zm-.5-20.97l.5 1.55.5-1.55z" fill="#ffbbb1"/><path d="M1038.87 709.25H1075c2.76 0 5 2.24 5 5V775c0 2.76-2.24 5-5 5H236.43c-2.76 0-5 2.24-5 5v86.06" stroke="#999" stroke-width="8" fill="none"/><path d="M1038.87 713.25h-1v-8h1zM231.43 886.06l-4.63-14.27h9.27z" fill="#999"/><path d="M231.43 899l-10.14-31.2h20.28z" fill="#999"/><path d="M322.87 930h31.75" stroke="#999" stroke-width="8" fill="none"/><path d="M322.87 934h-1v-8h1zM369.62 930l-14.27 4.64v-9.28z" fill="#999"/><path d="M382.56 930l-31.2 10.14v-20.28z" fill="#999"/><path d="M322.43 711h28.04c.14 0 .25-.1.25-.25 0-.14.1-.25.25-.25h.1" stroke="#999" stroke-width="8" fill="none"/><path d="M322.43 715h-1v-8h1zM366.06 710.5l-14.27 4.64v-9.28z" fill="#999"/><path d="M379 710.5l-31.2 10.14v-20.28z" fill="#999"/><path d="M681.3 710h28.62" stroke="#999" stroke-width="8" fill="none"/><path d="M681.3 714h-1v-8h1zM724.92 710l-14.26 4.64v-9.28z" fill="#999"/><path d="M737.87 710l-31.2 10.14v-20.28z" fill="#999"/><path d="M859.87 710h27.9c.2 0 .38-.17.38-.38v-.03c0-.2.15-.35.34-.35" stroke="#999" stroke-width="8" fill="none"/><path d="M859.87 714h-1v-8h1zM903.5 709.25l-14.28 4.64v-9.3z" fill="#999"/><path d="M916.43 709.25l-31.2 10.14v-20.3z" fill="#999"/><defs><path fill="#333" d="M24 0v-248h195v40H76v63h132v40H76v65h150V0H24" id="M"/><path fill="#333" d="M169-182c-1-43-94-46-97-3 18 66 151 10 154 114 3 95-165 93-204 36-6-8-10-19-12-30l50-8c3 46 112 56 116 5-17-69-150-10-154-114-4-87 153-88 188-35 5 8 8 18 10 28" id="N"/><path fill="#333" d="M136-208V0H84v-208H4v-40h212v40h-80" id="O"/><path fill="#333" d="M199 0l-22-63H83L61 0H9l90-248h61L250 0h-51zm-33-102l-36-108c-10 38-24 72-36 108h72" id="P"/><path fill="#333" d="M182-130c37 4 62 22 62 59C244 23 116-4 24 0v-248c84 5 203-23 205 63 0 31-19 50-47 55zM76-148c40-3 101 13 101-30 0-44-60-28-101-31v61zm0 110c48-3 116 14 116-37 0-48-69-32-116-35v72" id="Q"/><path fill="#333" d="M24 0v-248h52v208h133V0H24" id="R"/><path fill="#333" d="M24 0v-248h52V0H24" id="S"/><path fill="#333" d="M186 0v-106H76V0H24v-248h52v99h110v-99h50V0h-50" id="T"/><g id="a"><use transform="matrix(0.06172839506172839,0,0,0.06172839506172839,0,0)" xlink:href="#M"/><use transform="matrix(0.06172839506172839,0,0,0.06172839506172839,14.814814814814813,0)" xlink:href="#N"/><use transform="matrix(0.06172839506172839,0,0,0.06172839506172839,29.629629629629626,0)" xlink:href="#O"/><use transform="matrix(0.06172839506172839,0,0,0.06172839506172839,41.481481481481474,0)" xlink:href="#P"/><use transform="matrix(0.06172839506172839,0,0,0.06172839506172839,57.469135802469125,0)" xlink:href="#Q"/><use transform="matrix(0.06172839506172839,0,0,0.06172839506172839,73.45679012345678,0)" xlink:href="#R"/><use transform="matrix(0.06172839506172839,0,0,0.06172839506172839,86.9753086419753,0)" xlink:href="#S"/><use transform="matrix(0.06172839506172839,0,0,0.06172839506172839,93.14814814814814,0)" xlink:href="#N"/><use transform="matrix(0.06172839506172839,0,0,0.06172839506172839,107.96296296296295,0)" xlink:href="#T"/></g><path fill="#333" d="M175 0L67-191c6 58 2 128 3 191H24v-248h59L193-55c-6-58-2-129-3-193h46V0h-61" id="U"/><path fill="#333" d="M147 0H94L2-248h55l64 206c17-72 42-137 63-206h54" id="V"/><path fill="#333" d="M140-251c80 0 125 45 125 126S219 4 139 4C58 4 15-44 15-125s44-126 125-126zm-1 214c52 0 73-35 73-88 0-50-21-86-72-86-52 0-73 35-73 86s22 88 72 88" id="W"/><path fill="#333" d="M24-248c93 1 206-16 204 79-1 75-69 88-152 82V0H24v-248zm52 121c47 0 100 7 100-41 0-47-54-39-100-39v80" id="X"/><g id="b"><use transform="matrix(0.06172839506172839,0,0,0.06172839506172839,0,0)" xlink:href="#M"/><use transform="matrix(0.06172839506172839,0,0,0.06172839506172839,14.814814814814813,0)" xlink:href="#U"/><use transform="matrix(0.06172839506172839,0,0,0.06172839506172839,30.80246913580247,0)" xlink:href="#V"/><use transform="matrix(0.06172839506172839,0,0,0.06172839506172839,45.61728395061728,0)" xlink:href="#M"/><use transform="matrix(0.06172839506172839,0,0,0.06172839506172839,60.43209876543209,0)" xlink:href="#R"/><use transform="matrix(0.06172839506172839,0,0,0.06172839506172839,73.9506172839506,0)" xlink:href="#W"/><use transform="matrix(0.06172839506172839,0,0,0.06172839506172839,91.23456790123456,0)" xlink:href="#X"/><use transform="matrix(0.06172839506172839,0,0,0.06172839506172839,106.04938271604937,0)" xlink:href="#M"/></g><path fill="#333" d="M24-248c120-7 223 5 221 122C244-46 201 0 124 0H24v-248zM76-40c74 7 117-18 117-86 0-67-45-88-117-82v168" id="Y"/><g id="c"><use transform="matrix(0.06172839506172839,0,0,0.06172839506172839,0,0)" xlink:href="#Y"/><use transform="matrix(0.06172839506172839,0,0,0.06172839506172839,15.987654320987653,0)" xlink:href="#P"/><use transform="matrix(0.06172839506172839,0,0,0.06172839506172839,30.30864197530864,0)" xlink:href="#O"/><use transform="matrix(0.06172839506172839,0,0,0.06172839506172839,42.16049382716049,0)" xlink:href="#P"/></g><path fill="#333" d="M67-125c0 53 21 87 73 88 37 1 54-22 65-47l45 17C233-25 199 4 140 4 58 4 20-42 15-125 8-235 124-281 211-232c18 10 29 29 36 50l-46 12c-8-25-30-41-62-41-52 0-71 34-72 86" id="Z"/><g id="d"><use transform="matrix(0.06172839506172839,0,0,0.06172839506172839,0,0)" xlink:href="#Z"/><use transform="matrix(0.06172839506172839,0,0,0.06172839506172839,15.987654320987653,0)" xlink:href="#R"/><use transform="matrix(0.06172839506172839,0,0,0.06172839506172839,29.50617283950617,0)" xlink:href="#W"/><use transform="matrix(0.06172839506172839,0,0,0.06172839506172839,46.79012345679012,0)" xlink:href="#N"/><use transform="matrix(0.06172839506172839,0,0,0.06172839506172839,61.60493827160494,0)" xlink:href="#M"/></g><path fill="#333" d="M110-194c64 0 96 36 96 99 0 64-35 99-97 99-61 0-95-36-95-99 0-62 34-99 96-99zm-1 164c35 0 45-28 45-65 0-40-10-65-43-65-34 0-45 26-45 65 0 36 10 65 43 65" id="aa"/><path fill="#333" d="M135-194c87-1 58 113 63 194h-50c-7-57 23-157-34-157-59 0-34 97-39 157H25l-1-190h47c2 12-1 28 3 38 12-26 28-41 61-42" id="ab"/><path fill="#333" d="M185-48c-13 30-37 53-82 52C43 2 14-33 14-96s30-98 90-98c62 0 83 45 84 108H66c0 31 8 55 39 56 18 0 30-7 34-22zm-45-69c5-46-57-63-70-21-2 6-4 13-4 21h74" id="ac"/><path fill="#333" d="M190-63c-7 42-38 67-86 67-59 0-84-38-90-98-12-110 154-137 174-36l-49 2c-2-19-15-32-35-32-30 0-35 28-38 64-6 74 65 87 74 30" id="ad"/><path fill="#333" d="M115-3C79 11 28 4 28-45v-112H4v-33h27l15-45h31v45h36v33H77v99c-1 23 16 31 38 25v30" id="ae"/><g id="e"><use transform="matrix(0.05,0,0,0.05,0,0)" xlink:href="#Z"/><use transform="matrix(0.05,0,0,0.05,12.950000000000001,0)" xlink:href="#aa"/><use transform="matrix(0.05,0,0,0.05,23.900000000000002,0)" xlink:href="#ab"/><use transform="matrix(0.05,0,0,0.05,34.85,0)" xlink:href="#ab"/><use transform="matrix(0.05,0,0,0.05,45.800000000000004,0)" xlink:href="#ac"/><use transform="matrix(0.05,0,0,0.05,55.800000000000004,0)" xlink:href="#ad"/><use transform="matrix(0.05,0,0,0.05,65.80000000000001,0)" xlink:href="#ae"/></g><path fill="#999" d="M182-130c37 4 62 22 62 59C244 23 116-4 24 0v-248c84 5 203-23 205 63 0 31-19 50-47 55zM76-148c40-3 101 13 101-30 0-44-60-28-101-31v61zm0 110c48-3 116 14 116-37 0-48-69-32-116-35v72" id="af"/><path fill="#999" d="M24 0v-248h52v208h133V0H24" id="ag"/><path fill="#999" d="M199 0l-22-63H83L61 0H9l90-248h61L250 0h-51zm-33-102l-36-108c-10 38-24 72-36 108h72" id="ah"/><path fill="#999" d="M230 0l2-204L168 0h-37L68-204 70 0H24v-248h70l56 185 57-185h69V0h-46" id="ai"/><g id="f"><use transform="matrix(0.09876543209876544,0,0,0.09876543209876544,0,0)" xlink:href="#af"/><use transform="matrix(0.09876543209876544,0,0,0.09876543209876544,25.58024691358025,0)" xlink:href="#ag"/><use transform="matrix(0.09876543209876544,0,0,0.09876543209876544,47.20987654320988,0)" xlink:href="#ah"/><use transform="matrix(0.09876543209876544,0,0,0.09876543209876544,72.79012345679013,0)" xlink:href="#ai"/></g><path fill="#999" d="M14-72v-43h91v43H14" id="aj"/><use transform="matrix(0.09876543209876544,0,0,0.09876543209876544,0,0)" xlink:href="#aj" id="g"/><path fill="#999" d="M169-182c-1-43-94-46-97-3 18 66 151 10 154 114 3 95-165 93-204 36-6-8-10-19-12-30l50-8c3 46 112 56 116 5-17-69-150-10-154-114-4-87 153-88 188-35 5 8 8 18 10 28" id="ak"/><path fill="#999" d="M136-208V0H84v-208H4v-40h212v40h-80" id="al"/><path fill="#999" d="M24-248c93 1 206-16 204 79-1 75-69 88-152 82V0H24v-248zm52 121c47 0 100 7 100-41 0-47-54-39-100-39v80" id="am"/><g id="h"><use transform="matrix(0.09876543209876544,0,0,0.09876543209876544,0,0)" xlink:href="#ak"/><use transform="matrix(0.09876543209876544,0,0,0.09876543209876544,23.703703703703706,0)" xlink:href="#ai"/><use transform="matrix(0.09876543209876544,0,0,0.09876543209876544,53.23456790123457,0)" xlink:href="#al"/><use transform="matrix(0.09876543209876544,0,0,0.09876543209876544,74.8641975308642,0)" xlink:href="#am"/></g><path fill="#999" d="M240-174c0 40-23 61-54 70L253 0h-59l-57-94H76V0H24v-248c93 4 217-23 216 74zM76-134c48-2 112 12 112-38 0-48-66-32-112-35v73" id="an"/><g id="i"><use transform="matrix(0.09876543209876544,0,0,0.09876543209876544,0,0)" xlink:href="#ak"/><use transform="matrix(0.09876543209876544,0,0,0.09876543209876544,23.703703703703706,0)" xlink:href="#al"/><use transform="matrix(0.09876543209876544,0,0,0.09876543209876544,42.66666666666667,0)" xlink:href="#ah"/><use transform="matrix(0.09876543209876544,0,0,0.09876543209876544,68.24691358024693,0)" xlink:href="#an"/><use transform="matrix(0.09876543209876544,0,0,0.09876543209876544,93.82716049382718,0)" xlink:href="#al"/><use transform="matrix(0.09876543209876544,0,0,0.09876543209876544,115.45679012345683,0)" xlink:href="#al"/><use transform="matrix(0.09876543209876544,0,0,0.09876543209876544,137.08641975308643,0)" xlink:href="#ag"/><use transform="matrix(0.09876543209876544,0,0,0.09876543209876544,158.71604938271605,0)" xlink:href="#ak"/></g><path fill="#999" d="M67-93c0 74 22 123 53 168H70C40 30 18-18 18-93s22-123 52-168h50c-32 44-53 94-53 168" id="ao"/><path fill="#999" d="M175 0L67-191c6 58 2 128 3 191H24v-248h59L193-55c-6-58-2-129-3-193h46V0h-61" id="ap"/><path fill="#999" d="M140-251c80 0 125 45 125 126S219 4 139 4C58 4 15-44 15-125s44-126 125-126zm-1 214c52 0 73-35 73-88 0-50-21-86-72-86-52 0-73 35-73 86s22 88 72 88" id="aq"/><path fill="#999" d="M102-93c0 74-22 123-52 168H0C30 29 54-18 53-93c0-74-22-123-53-168h50c30 45 52 94 52 168" id="ar"/><g id="j"><use transform="matrix(0.09876543209876544,0,0,0.09876543209876544,0,0)" xlink:href="#ao"/><use transform="matrix(0.09876543209876544,0,0,0.09876543209876544,11.753086419753087,0)" xlink:href="#ah"/><use transform="matrix(0.09876543209876544,0,0,0.09876543209876544,37.333333333333336,0)" xlink:href="#ap"/><use transform="matrix(0.09876543209876544,0,0,0.09876543209876544,62.91358024691358,0)" xlink:href="#aq"/><use transform="matrix(0.09876543209876544,0,0,0.09876543209876544,90.5679012345679,0)" xlink:href="#ap"/><use transform="matrix(0.09876543209876544,0,0,0.09876543209876544,116.14814814814815,0)" xlink:href="#ar"/></g><path fill="#999" d="M24 0v-248h195v40H76v63h132v40H76v65h150V0H24" id="as"/><g id="k"><use transform="matrix(0.09876543209876544,0,0,0.09876543209876544,0,0)" xlink:href="#ak"/><use transform="matrix(0.09876543209876544,0,0,0.09876543209876544,23.703703703703706,0)" xlink:href="#al"/><use transform="matrix(0.09876543209876544,0,0,0.09876543209876544,42.66666666666667,0)" xlink:href="#ah"/><use transform="matrix(0.09876543209876544,0,0,0.09876543209876544,65.58024691358025,0)" xlink:href="#al"/><use transform="matrix(0.09876543209876544,0,0,0.09876543209876544,87.20987654320989,0)" xlink:href="#as"/></g><path fill="#999" d="M67-125c0 53 21 87 73 88 37 1 54-22 65-47l45 17C233-25 199 4 140 4 58 4 20-42 15-125 8-235 124-281 211-232c18 10 29 29 36 50l-46 12c-8-25-30-41-62-41-52 0-71 34-72 86" id="at"/><path fill="#999" d="M186 0v-106H76V0H24v-248h52v99h110v-99h50V0h-50" id="au"/><path fill="#999" d="M24 0v-248h52V0H24" id="av"/><g id="l"><use transform="matrix(0.09876543209876544,0,0,0.09876543209876544,0,0)" xlink:href="#ai"/><use transform="matrix(0.09876543209876544,0,0,0.09876543209876544,29.530864197530867,0)" xlink:href="#ah"/><use transform="matrix(0.09876543209876544,0,0,0.09876543209876544,55.111111111111114,0)" xlink:href="#at"/><use transform="matrix(0.09876543209876544,0,0,0.09876543209876544,80.69135802469137,0)" xlink:href="#au"/><use transform="matrix(0.09876543209876544,0,0,0.09876543209876544,106.27160493827161,0)" xlink:href="#av"/><use transform="matrix(0.09876543209876544,0,0,0.09876543209876544,116.14814814814815,0)" xlink:href="#ap"/><use transform="matrix(0.09876543209876544,0,0,0.09876543209876544,141.7283950617284,0)" xlink:href="#as"/></g><path fill="#999" d="M30-248c118-7 216 8 213 122C240-48 200 0 122 0H30v-248zM63-27c89 8 146-16 146-99s-60-101-146-95v194" id="aw"/><path fill="#999" d="M141-36C126-15 110 5 73 4 37 3 15-17 15-53c-1-64 63-63 125-63 3-35-9-54-41-54-24 1-41 7-42 31l-33-3c5-37 33-52 76-52 45 0 72 20 72 64v82c-1 20 7 32 28 27v20c-31 9-61-2-59-35zM48-53c0 20 12 33 32 33 41-3 63-29 60-74-43 2-92-5-92 41" id="ax"/><path fill="#999" d="M108 0H70L1-190h34L89-25l56-165h34" id="ay"/><path fill="#999" d="M24-231v-30h32v30H24zM24 0v-190h32V0H24" id="az"/><path fill="#999" d="M85-194c31 0 48 13 60 33l-1-100h32l1 261h-30c-2-10 0-23-3-31C134-8 116 4 85 4 32 4 16-35 15-94c0-66 23-100 70-100zm9 24c-40 0-46 34-46 75 0 40 6 74 45 74 42 0 51-32 51-76 0-42-9-74-50-73" id="aA"/><g id="m"><use transform="matrix(0.06172839506172778,0,0,0.06172839506172778,0,0)" xlink:href="#aw"/><use transform="matrix(0.06172839506172778,0,0,0.06172839506172778,15.987654320987495,0)" xlink:href="#ax"/><use transform="matrix(0.06172839506172778,0,0,0.06172839506172778,28.33333333333305,0)" xlink:href="#ay"/><use transform="matrix(0.06172839506172778,0,0,0.06172839506172778,39.44444444444405,0)" xlink:href="#az"/><use transform="matrix(0.06172839506172778,0,0,0.06172839506172778,44.32098765432055,0)" xlink:href="#aA"/></g><path fill="#999" d="M63-220v92h138v28H63V0H30v-248h175v28H63" id="aB"/><path fill="#999" d="M100-194c62-1 85 37 85 99 1 63-27 99-86 99S16-35 15-95c0-66 28-99 85-99zM99-20c44 1 53-31 53-75 0-43-8-75-51-75s-53 32-53 75 10 74 51 75" id="aC"/><path fill="#999" d="M114-163C36-179 61-72 57 0H25l-1-190h30c1 12-1 29 2 39 6-27 23-49 58-41v29" id="aD"/><g id="n"><use transform="matrix(0.06172839506172778,0,0,0.06172839506172778,0,0)" xlink:href="#aB"/><use transform="matrix(0.06172839506172778,0,0,0.06172839506172778,13.518518518518384,0)" xlink:href="#aC"/><use transform="matrix(0.06172839506172778,0,0,0.06172839506172778,25.86419753086394,0)" xlink:href="#aD"/><use transform="matrix(0.06172839506172778,0,0,0.06172839506172778,33.209876543209546,0)" xlink:href="#aA"/></g><path fill="#999" d="M32 76v-337h29V76H32" id="aE"/><use transform="matrix(0.06172839506172778,0,0,0.06172839506172778,0,0)" xlink:href="#aE" id="o"/><path fill="#999" d="M185-189c-5-48-123-54-124 2 14 75 158 14 163 119 3 78-121 87-175 55-17-10-28-26-33-46l33-7c5 56 141 63 141-1 0-78-155-14-162-118-5-82 145-84 179-34 5 7 8 16 11 25" id="aF"/><path fill="#999" d="M100-194c63 0 86 42 84 106H49c0 40 14 67 53 68 26 1 43-12 49-29l28 8c-11 28-37 45-77 45C44 4 14-33 15-96c1-61 26-98 85-98zm52 81c6-60-76-77-97-28-3 7-6 17-6 28h103" id="aG"/><path fill="#999" d="M115-194c55 1 70 41 70 98S169 2 115 4C84 4 66-9 55-30l1 105H24l-1-265h31l2 30c10-21 28-34 59-34zm-8 174c40 0 45-34 45-75s-6-73-45-74c-42 0-51 32-51 76 0 43 10 73 51 73" id="aH"/><path fill="#999" d="M59-47c-2 24 18 29 38 22v24C64 9 27 4 27-40v-127H5v-23h24l9-43h21v43h35v23H59v120" id="aI"/><path fill="#999" d="M210-169c-67 3-38 105-44 169h-31v-121c0-29-5-50-35-48C34-165 62-65 56 0H25l-1-190h30c1 10-1 24 2 32 10-44 99-50 107 0 11-21 27-35 58-36 85-2 47 119 55 194h-31v-121c0-29-5-49-35-48" id="aJ"/><path fill="#999" d="M115-194c53 0 69 39 70 98 0 66-23 100-70 100C84 3 66-7 56-30L54 0H23l1-261h32v101c10-23 28-34 59-34zm-8 174c40 0 45-34 45-75 0-40-5-75-45-74-42 0-51 32-51 76 0 43 10 73 51 73" id="aK"/><g id="p"><use transform="matrix(0.06172839506172778,0,0,0.06172839506172778,0,0)" xlink:href="#aF"/><use transform="matrix(0.06172839506172778,0,0,0.06172839506172778,14.814814814814667,0)" xlink:href="#aG"/><use transform="matrix(0.06172839506172778,0,0,0.06172839506172778,27.160493827160224,0)" xlink:href="#aH"/><use transform="matrix(0.06172839506172778,0,0,0.06172839506172778,39.50617283950578,0)" xlink:href="#aI"/><use transform="matrix(0.06172839506172778,0,0,0.06172839506172778,45.67901234567856,0)" xlink:href="#aG"/><use transform="matrix(0.06172839506172778,0,0,0.06172839506172778,58.024691358024114,0)" xlink:href="#aJ"/><use transform="matrix(0.06172839506172778,0,0,0.06172839506172778,76.48148148148073,0)" xlink:href="#aK"/><use transform="matrix(0.06172839506172778,0,0,0.06172839506172778,88.82716049382628,0)" xlink:href="#aG"/><use transform="matrix(0.06172839506172778,0,0,0.06172839506172778,101.17283950617184,0)" xlink:href="#aD"/></g><path fill="#999" d="M27 0v-27h64v-190l-56 39v-29l58-41h29v221h61V0H27" id="aL"/><path fill="#999" d="M101-251c68 0 85 55 85 127S166 4 100 4C33 4 14-52 14-124c0-73 17-127 87-127zm-1 229c47 0 54-49 54-102s-4-102-53-102c-51 0-55 48-55 102 0 53 5 102 54 102" id="aM"/><path fill="#999" d="M68-38c1 34 0 65-14 84H32c9-13 17-26 17-46H33v-38h35" id="aN"/><g id="q"><use transform="matrix(0.06172839506172778,0,0,0.06172839506172778,0,0)" xlink:href="#aL"/><use transform="matrix(0.06172839506172778,0,0,0.06172839506172778,12.345679012345556,0)" xlink:href="#aM"/><use transform="matrix(0.06172839506172778,0,0,0.06172839506172778,24.691358024691112,0)" xlink:href="#aN"/></g><path fill="#999" d="M101-251c82-7 93 87 43 132L82-64C71-53 59-42 53-27h129V0H18c2-99 128-94 128-182 0-28-16-43-45-43s-46 15-49 41l-32-3c6-41 34-60 81-64" id="aO"/><path fill="#999" d="M134-131c28 9 52 24 51 62-1 50-34 73-85 73S17-19 16-69c0-36 21-54 49-61-75-25-45-126 34-121 46 3 78 18 79 63 0 33-17 51-44 57zm-34-11c31 1 46-15 46-44 0-28-17-43-47-42-29 0-46 13-45 42 1 28 16 44 46 44zm1 122c35 0 51-18 51-52 0-30-18-46-53-46-33 0-51 17-51 47 0 34 19 51 53 51" id="aP"/><g id="r"><use transform="matrix(0.06172839506172778,0,0,0.06172839506172778,0,0)" xlink:href="#aO"/><use transform="matrix(0.06172839506172778,0,0,0.06172839506172778,12.345679012345556,0)" xlink:href="#aM"/><use transform="matrix(0.06172839506172778,0,0,0.06172839506172778,24.691358024691112,0)" xlink:href="#aL"/><use transform="matrix(0.06172839506172778,0,0,0.06172839506172778,37.03703703703667,0)" xlink:href="#aP"/></g><g id="s"><use transform="matrix(0.05,0,0,0.05,0,0)" xlink:href="#M"/><use transform="matrix(0.05,0,0,0.05,12,0)" xlink:href="#T"/><use transform="matrix(0.05,0,0,0.05,24.950000000000003,0)" xlink:href="#R"/><use transform="matrix(0.05,0,0,0.05,35.900000000000006,0)" xlink:href="#W"/></g><path fill="#333" d="M240-174c0 40-23 61-54 70L253 0h-59l-57-94H76V0H24v-248c93 4 217-23 216 74zM76-134c48-2 112 12 112-38 0-48-66-32-112-35v73" id="aQ"/><g id="t"><use transform="matrix(0.05,0,0,0.05,0,0)" xlink:href="#N"/><use transform="matrix(0.05,0,0,0.05,12,0)" xlink:href="#O"/><use transform="matrix(0.05,0,0,0.05,21.6,0)" xlink:href="#P"/><use transform="matrix(0.05,0,0,0.05,34.550000000000004,0)" xlink:href="#aQ"/><use transform="matrix(0.05,0,0,0.05,47.50000000000001,0)" xlink:href="#O"/><use transform="matrix(0.05,0,0,0.05,58.45000000000002,0)" xlink:href="#O"/><use transform="matrix(0.05,0,0,0.05,69.4,0)" xlink:href="#R"/><use transform="matrix(0.05,0,0,0.05,80.35000000000001,0)" xlink:href="#N"/></g><path fill="#333" d="M230 0l2-204L168 0h-37L68-204 70 0H24v-248h70l56 185 57-185h69V0h-46" id="aR"/><g id="u"><use transform="matrix(0.05,0,0,0.05,0,0)" xlink:href="#aR"/><use transform="matrix(0.05,0,0,0.05,14.950000000000001,0)" xlink:href="#P"/><use transform="matrix(0.05,0,0,0.05,27.900000000000002,0)" xlink:href="#S"/><use transform="matrix(0.05,0,0,0.05,32.900000000000006,0)" xlink:href="#R"/></g><path fill="#333" d="M76-208v77h127v40H76V0H24v-248h183v40H76" id="aS"/><g id="v"><use transform="matrix(0.05,0,0,0.05,0,0)" xlink:href="#aS"/><use transform="matrix(0.05,0,0,0.05,10.950000000000001,0)" xlink:href="#aQ"/><use transform="matrix(0.05,0,0,0.05,23.900000000000002,0)" xlink:href="#W"/><use transform="matrix(0.05,0,0,0.05,37.900000000000006,0)" xlink:href="#aR"/></g><g id="w"><use transform="matrix(0.05,0,0,0.05,0,0)" xlink:href="#aQ"/><use transform="matrix(0.05,0,0,0.05,12.950000000000001,0)" xlink:href="#Z"/><use transform="matrix(0.05,0,0,0.05,25.900000000000002,0)" xlink:href="#X"/><use transform="matrix(0.05,0,0,0.05,37.900000000000006,0)" xlink:href="#O"/></g><g id="x"><use transform="matrix(0.05,0,0,0.05,0,0)" xlink:href="#O"/><use transform="matrix(0.05,0,0,0.05,10.600000000000001,0)" xlink:href="#W"/></g><g id="y"><use transform="matrix(0.05,0,0,0.05,0,0)" xlink:href="#Y"/><use transform="matrix(0.05,0,0,0.05,12.950000000000001,0)" xlink:href="#P"/><use transform="matrix(0.05,0,0,0.05,24.550000000000004,0)" xlink:href="#O"/><use transform="matrix(0.05,0,0,0.05,34.150000000000006,0)" xlink:href="#P"/></g><path fill="#333" d="M87 75C49 33 22-17 22-94c0-76 28-126 65-167h31c-38 41-64 92-64 168S80 34 118 75H87" id="aT"/><path fill="#333" d="M197 0v-115H63V0H30v-248h33v105h134v-105h34V0h-34" id="aU"/><path fill="#333" d="M100-194c63 0 86 42 84 106H49c0 40 14 67 53 68 26 1 43-12 49-29l28 8c-11 28-37 45-77 45C44 4 14-33 15-96c1-61 26-98 85-98zm52 81c6-60-76-77-97-28-3 7-6 17-6 28h103" id="aV"/><path fill="#333" d="M141-36C126-15 110 5 73 4 37 3 15-17 15-53c-1-64 63-63 125-63 3-35-9-54-41-54-24 1-41 7-42 31l-33-3c5-37 33-52 76-52 45 0 72 20 72 64v82c-1 20 7 32 28 27v20c-31 9-61-2-59-35zM48-53c0 20 12 33 32 33 41-3 63-29 60-74-43 2-92-5-92 41" id="aW"/><path fill="#333" d="M85-194c31 0 48 13 60 33l-1-100h32l1 261h-30c-2-10 0-23-3-31C134-8 116 4 85 4 32 4 16-35 15-94c0-66 23-100 70-100zm9 24c-40 0-46 34-46 75 0 40 6 74 45 74 42 0 51-32 51-76 0-42-9-74-50-73" id="aX"/><path fill="#333" d="M114-163C36-179 61-72 57 0H25l-1-190h30c1 12-1 29 2 39 6-27 23-49 58-41v29" id="aY"/><path fill="#333" d="M135-143c-3-34-86-38-87 0 15 53 115 12 119 90S17 21 10-45l28-5c4 36 97 45 98 0-10-56-113-15-118-90-4-57 82-63 122-42 12 7 21 19 24 35" id="aZ"/><path fill="#333" d="M33-261c38 41 65 92 65 168S71 34 33 75H2C39 34 66-17 66-93S39-220 2-261h31" id="ba"/><g id="z"><use transform="matrix(0.03703703703703704,0,0,0.03703703703703704,0,0)" xlink:href="#aT"/><use transform="matrix(0.03703703703703704,0,0,0.03703703703703704,4.407407407407408,0)" xlink:href="#aU"/><use transform="matrix(0.03703703703703704,0,0,0.03703703703703704,14.000000000000002,0)" xlink:href="#aV"/><use transform="matrix(0.03703703703703704,0,0,0.03703703703703704,21.407407407407412,0)" xlink:href="#aW"/><use transform="matrix(0.03703703703703704,0,0,0.03703703703703704,28.81481481481482,0)" xlink:href="#aX"/><use transform="matrix(0.03703703703703704,0,0,0.03703703703703704,36.22222222222223,0)" xlink:href="#aV"/><use transform="matrix(0.03703703703703704,0,0,0.03703703703703704,43.62962962962963,0)" xlink:href="#aY"/><use transform="matrix(0.03703703703703704,0,0,0.03703703703703704,48.03703703703704,0)" xlink:href="#aZ"/><use transform="matrix(0.03703703703703704,0,0,0.03703703703703704,54.70370370370371,0)" xlink:href="#ba"/></g><path fill="#333" d="M30 0v-248h33v221h125V0H30" id="bb"/><path fill="#333" d="M185-189c-5-48-123-54-124 2 14 75 158 14 163 119 3 78-121 87-175 55-17-10-28-26-33-46l33-7c5 56 141 63 141-1 0-78-155-14-162-118-5-82 145-84 179-34 5 7 8 16 11 25" id="bc"/><path fill="#333" d="M33-154v-36h34v36H33zM33 0v-36h34V0H33" id="bd"/><path fill="#333" d="M72 4L0-261h28L100 4H72" id="be"/><path fill="#333" d="M206 0h-36l-40-164L89 0H53L-1-190h32L70-26l43-164h34l41 164 42-164h31" id="bf"/><path fill="#333" d="M233-177c-1 41-23 64-60 70L243 0h-38l-65-103H63V0H30v-248c88 3 205-21 203 71zM63-129c60-2 137 13 137-47 0-61-80-42-137-45v92" id="bg"/><g id="A"><use transform="matrix(0.03703703703703704,0,0,0.03703703703703704,0,0)" xlink:href="#bb"/><use transform="matrix(0.03703703703703704,0,0,0.03703703703703704,7.407407407407408,0)" xlink:href="#aU"/><use transform="matrix(0.03703703703703704,0,0,0.03703703703703704,17,0)" xlink:href="#bc"/><use transform="matrix(0.03703703703703704,0,0,0.03703703703703704,25.88888888888889,0)" xlink:href="#bd"/><use transform="matrix(0.03703703703703704,0,0,0.03703703703703704,29.592592592592595,0)" xlink:href="#be"/><use transform="matrix(0.03703703703703704,0,0,0.03703703703703704,33.2962962962963,0)" xlink:href="#bf"/><use transform="matrix(0.03703703703703704,0,0,0.03703703703703704,42.88888888888889,0)" xlink:href="#bg"/><use transform="matrix(0.03703703703703704,0,0,0.03703703703703704,52.48148148148149,0)" xlink:href="#aU"/><use transform="matrix(0.03703703703703704,0,0,0.03703703703703704,62.07407407407408,0)" xlink:href="#bc"/></g><path fill="#333" d="M18-100v-36l175-74v27L42-118l151 64v27" id="bh"/><path fill="#333" d="M96-169c-40 0-48 33-48 73s9 75 48 75c24 0 41-14 43-38l32 2c-6 37-31 61-74 61-59 0-76-41-82-99-10-93 101-131 147-64 4 7 5 14 7 22l-32 3c-4-21-16-35-41-35" id="bi"/><path fill="#333" d="M24 0v-261h32V0H24" id="bj"/><path fill="#333" d="M101-234c-31-9-42 10-38 44h38v23H63V0H32v-167H5v-23h27c-7-52 17-82 69-68v24" id="bk"/><path fill="#333" d="M18-27v-27l151-64-151-65v-27l175 74v36" id="bl"/><g id="B"><use transform="matrix(0.03703703703703704,0,0,0.03703703703703704,0,0)" xlink:href="#bh"/><use transform="matrix(0.03703703703703704,0,0,0.03703703703703704,7.777777777777779,0)" xlink:href="#bi"/><use transform="matrix(0.03703703703703704,0,0,0.03703703703703704,14.444444444444446,0)" xlink:href="#aY"/><use transform="matrix(0.03703703703703704,0,0,0.03703703703703704,18.851851851851855,0)" xlink:href="#bj"/><use transform="matrix(0.03703703703703704,0,0,0.03703703703703704,21.777777777777782,0)" xlink:href="#bk"/><use transform="matrix(0.03703703703703704,0,0,0.03703703703703704,25.481481481481488,0)" xlink:href="#bl"/></g><path fill="#333" d="M212-179c-10-28-35-45-73-45-59 0-87 40-87 99 0 60 29 101 89 101 43 0 62-24 78-52l27 14C228-24 195 4 139 4 59 4 22-46 18-125c-6-104 99-153 187-111 19 9 31 26 39 46" id="bm"/><path fill="#333" d="M63-220v92h138v28H63V0H30v-248h175v28H63" id="bn"/><g id="C"><use transform="matrix(0.03703703703703704,0,0,0.03703703703703704,0,0)" xlink:href="#bh"/><use transform="matrix(0.03703703703703704,0,0,0.03703703703703704,7.777777777777779,0)" xlink:href="#bm"/><use transform="matrix(0.03703703703703704,0,0,0.03703703703703704,17.370370370370374,0)" xlink:href="#bg"/><use transform="matrix(0.03703703703703704,0,0,0.03703703703703704,26.96296296296297,0)" xlink:href="#bb"/><use transform="matrix(0.03703703703703704,0,0,0.03703703703703704,34.37037037037038,0)" xlink:href="#bn"/><use transform="matrix(0.03703703703703704,0,0,0.03703703703703704,42.481481481481495,0)" xlink:href="#bl"/></g><g id="D"><use transform="matrix(0.03703703703703704,0,0,0.03703703703703704,0,0)" xlink:href="#bh"/><use transform="matrix(0.03703703703703704,0,0,0.03703703703703704,7.777777777777779,0)" xlink:href="#bm"/><use transform="matrix(0.03703703703703704,0,0,0.03703703703703704,17.370370370370374,0)" xlink:href="#bg"/><use transform="matrix(0.03703703703703704,0,0,0.03703703703703704,26.96296296296297,0)" xlink:href="#bb"/><use transform="matrix(0.03703703703703704,0,0,0.03703703703703704,34.37037037037038,0)" xlink:href="#bn"/><use transform="matrix(0.03703703703703704,0,0,0.03703703703703704,42.481481481481495,0)" xlink:href="#bl"/></g><path fill="#333" d="M160-131c35 5 61 23 61 61C221 17 115-2 30 0v-248c76 3 177-17 177 60 0 33-19 50-47 57zm-97-11c50-1 110 9 110-42 0-47-63-36-110-37v79zm0 115c55-2 124 14 124-45 0-56-70-42-124-44v89" id="bo"/><path fill="#333" d="M100-194c62-1 85 37 85 99 1 63-27 99-86 99S16-35 15-95c0-66 28-99 85-99zM99-20c44 1 53-31 53-75 0-43-8-75-51-75s-53 32-53 75 10 74 51 75" id="bp"/><path fill="#333" d="M179-190L93 31C79 59 56 82 12 73V49c39 6 53-20 64-50L1-190h34L92-34l54-156h33" id="bq"/><g id="E"><use transform="matrix(0.03703703703703704,0,0,0.03703703703703704,0,0)" xlink:href="#bo"/><use transform="matrix(0.03703703703703704,0,0,0.03703703703703704,8.88888888888889,0)" xlink:href="#bp"/><use transform="matrix(0.03703703703703704,0,0,0.03703703703703704,16.296296296296298,0)" xlink:href="#aX"/><use transform="matrix(0.03703703703703704,0,0,0.03703703703703704,23.703703703703706,0)" xlink:href="#bq"/></g><g id="F"><use transform="matrix(0.03703703703703704,0,0,0.03703703703703704,0,0)" xlink:href="#bh"/><use transform="matrix(0.03703703703703704,0,0,0.03703703703703704,7.777777777777779,0)" xlink:href="#bm"/><use transform="matrix(0.03703703703703704,0,0,0.03703703703703704,17.370370370370374,0)" xlink:href="#bg"/><use transform="matrix(0.03703703703703704,0,0,0.03703703703703704,26.96296296296297,0)" xlink:href="#bb"/><use transform="matrix(0.03703703703703704,0,0,0.03703703703703704,34.37037037037038,0)" xlink:href="#bn"/><use transform="matrix(0.03703703703703704,0,0,0.03703703703703704,42.481481481481495,0)" xlink:href="#bl"/></g><path fill="#333" d="M33 0v-38h34V0H33" id="br"/><use transform="matrix(0.03703703703703704,0,0,0.03703703703703704,0,0)" xlink:href="#br" id="G"/><path fill="#333" d="M115-194c55 1 70 41 70 98S169 2 115 4C84 4 66-9 55-30l1 105H24l-1-265h31l2 30c10-21 28-34 59-34zm-8 174c40 0 45-34 45-75s-6-73-45-74c-42 0-51 32-51 76 0 43 10 73 51 73" id="bs"/><path fill="#333" d="M59-47c-2 24 18 29 38 22v24C64 9 27 4 27-40v-127H5v-23h24l9-43h21v43h35v23H59v120" id="bt"/><path fill="#333" d="M115-194c53 0 69 39 70 98 0 66-23 100-70 100C84 3 66-7 56-30L54 0H23l1-261h32v101c10-23 28-34 59-34zm-8 174c40 0 45-34 45-75 0-40-5-75-45-74-42 0-51 32-51 76 0 43 10 73 51 73" id="bu"/><g id="H"><use transform="matrix(0.03703703703703704,0,0,0.03703703703703704,0,0)" xlink:href="#aY"/><use transform="matrix(0.03703703703703704,0,0,0.03703703703703704,4.407407407407408,0)" xlink:href="#aV"/><use transform="matrix(0.03703703703703704,0,0,0.03703703703703704,11.814814814814817,0)" xlink:href="#bs"/><use transform="matrix(0.03703703703703704,0,0,0.03703703703703704,19.222222222222225,0)" xlink:href="#aV"/><use transform="matrix(0.03703703703703704,0,0,0.03703703703703704,26.629629629629633,0)" xlink:href="#aW"/><use transform="matrix(0.03703703703703704,0,0,0.03703703703703704,34.03703703703704,0)" xlink:href="#bt"/><use transform="matrix(0.03703703703703704,0,0,0.03703703703703704,37.74074074074074,0)" xlink:href="#aW"/><use transform="matrix(0.03703703703703704,0,0,0.03703703703703704,45.14814814814815,0)" xlink:href="#bu"/><use transform="matrix(0.03703703703703704,0,0,0.03703703703703704,52.55555555555556,0)" xlink:href="#bj"/><use transform="matrix(0.03703703703703704,0,0,0.03703703703703704,55.48148148148148,0)" xlink:href="#aV"/></g><g id="I"><use transform="matrix(0.05,0,0,0.05,0,0)" xlink:href="#aQ"/><use transform="matrix(0.05,0,0,0.05,12.950000000000001,0)" xlink:href="#N"/><use transform="matrix(0.05,0,0,0.05,24.950000000000003,0)" xlink:href="#M"/><use transform="matrix(0.05,0,0,0.05,36.95,0)" xlink:href="#O"/></g><g id="J"><use transform="matrix(0.05,0,0,0.05,0,0)" xlink:href="#U"/><use transform="matrix(0.05,0,0,0.05,12.950000000000001,0)" xlink:href="#W"/><use transform="matrix(0.05,0,0,0.05,26.950000000000003,0)" xlink:href="#W"/><use transform="matrix(0.05,0,0,0.05,40.95,0)" xlink:href="#X"/></g><path fill="#333" d="M140-251c80 0 125 45 125 126 0 70-33 111-92 124 6 28 34 38 68 31l-1 36C177 83 129 55 120 2 51-6 15-50 15-125c0-81 44-126 125-126zm-1 214c52 0 73-35 73-88 0-50-21-86-72-86-52 0-73 35-73 86s22 88 72 88" id="bv"/><path fill="#333" d="M238-95c0 69-44 99-111 99C63 4 22-25 22-93v-155h51v151c-1 38 19 59 55 60 90 1 49-130 58-211h52v153" id="bw"/><g id="K"><use transform="matrix(0.05,0,0,0.05,0,0)" xlink:href="#bv"/><use transform="matrix(0.05,0,0,0.05,14,0)" xlink:href="#bw"/><use transform="matrix(0.05,0,0,0.05,26.950000000000003,0)" xlink:href="#S"/><use transform="matrix(0.05,0,0,0.05,31.950000000000003,0)" xlink:href="#O"/></g><path fill="#333" d="M25-224v-37h50v37H25zM25 0v-190h50V0H25" id="bx"/><path fill="#333" d="M137-138c1-29-70-34-71-4 15 46 118 7 119 86 1 83-164 76-172 9l43-7c4 19 20 25 44 25 33 8 57-30 24-41C81-84 22-81 20-136c-2-80 154-74 161-7" id="by"/><g id="L"><use transform="matrix(0.05,0,0,0.05,0,0)" xlink:href="#Y"/><use transform="matrix(0.05,0,0,0.05,12.950000000000001,0)" xlink:href="#bx"/><use transform="matrix(0.05,0,0,0.05,17.950000000000003,0)" xlink:href="#by"/><use transform="matrix(0.05,0,0,0.05,27.950000000000003,0)" xlink:href="#ad"/><use transform="matrix(0.05,0,0,0.05,37.95,0)" xlink:href="#aa"/><use transform="matrix(0.05,0,0,0.05,48.900000000000006,0)" xlink:href="#ab"/><use transform="matrix(0.05,0,0,0.05,59.85,0)" xlink:href="#ab"/><use transform="matrix(0.05,0,0,0.05,70.80000000000001,0)" xlink:href="#ac"/><use transform="matrix(0.05,0,0,0.05,80.80000000000001,0)" xlink:href="#ad"/><use transform="matrix(0.05,0,0,0.05,90.80000000000001,0)" xlink:href="#ae"/></g></defs></g></svg>